<svg width="270" height="54" viewBox="0 0 270 54" fill="none" xmlns="http://www.w3.org/2000/svg">
<path d="M13.4766 37.3555C14.1667 37.3555 14.7982 37.2839 15.3711 37.1406C15.944 36.9974 16.543 36.8151 17.168 36.5938V42.1602C16.3346 42.5247 15.4492 42.8177 14.5117 43.0391C13.5872 43.2734 12.4023 43.3906 10.957 43.3906C9.52474 43.3906 8.26172 43.1693 7.16797 42.7266C6.07422 42.2708 5.22135 41.4896 4.60938 40.3828C4.01042 39.263 3.71094 37.707 3.71094 35.7148V26.5938H1.03516V23.4883L4.43359 21.0859L6.40625 16.4375H11.4062V20.8711H16.8359V26.5938H11.4062V35.207C11.4062 35.9232 11.5885 36.4635 11.9531 36.8281C12.3177 37.1797 12.8255 37.3555 13.4766 37.3555ZM30.9961 20.4805C33.1445 20.4805 35 20.8581 36.5625 21.6133C38.125 22.3555 39.3294 23.4753 40.1758 24.9727C41.0221 26.4701 41.4453 28.3451 41.4453 30.5977V33.9961H27.793C27.8581 35.1549 28.2878 36.1055 29.082 36.8477C29.8893 37.5898 31.0742 37.9609 32.6367 37.9609C34.0169 37.9609 35.2799 37.8242 36.4258 37.5508C37.5846 37.2773 38.776 36.8542 40 36.2812V41.7695C38.9323 42.3294 37.7669 42.7396 36.5039 43C35.2409 43.2604 33.6458 43.3906 31.7188 43.3906C29.4922 43.3906 27.5 42.9935 25.7422 42.1992C23.9844 41.4049 22.5977 40.1745 21.582 38.5078C20.5794 36.8411 20.0781 34.6992 20.0781 32.082C20.0781 29.4258 20.5339 27.2448 21.4453 25.5391C22.3568 23.8203 23.6328 22.5508 25.2734 21.7305C26.9141 20.8971 28.8216 20.4805 30.9961 20.4805ZM31.2695 25.6758C30.3711 25.6758 29.6159 25.9622 29.0039 26.5352C28.4049 27.0951 28.0534 27.9805 27.9492 29.1914H34.5117C34.4987 28.5404 34.3685 27.9479 34.1211 27.4141C33.8737 26.8802 33.5091 26.457 33.0273 26.1445C32.5586 25.832 31.9727 25.6758 31.2695 25.6758ZM45.1953 52.6094C44.5833 52.6094 43.8802 52.5573 43.0859 52.4531C42.2786 52.362 41.6146 52.2513 41.0938 52.1211V46.1641C41.5104 46.2812 41.8945 46.3659 42.2461 46.418C42.5977 46.4831 42.9948 46.5156 43.4375 46.5156C44.0625 46.5156 44.6029 46.2943 45.0586 45.8516C45.5273 45.4219 45.7617 44.5365 45.7617 43.1953V20.8711H53.3984V44.7969C53.3984 46.125 53.138 47.3815 52.6172 48.5664C52.0964 49.7643 51.237 50.7344 50.0391 51.4766C48.8411 52.2318 47.2266 52.6094 45.1953 52.6094ZM45.5664 15.3633C45.5664 14.0091 45.957 13.1042 46.7383 12.6484C47.5326 12.1927 48.4896 11.9648 49.6094 11.9648C50.7031 11.9648 51.6536 12.1927 52.4609 12.6484C53.2812 13.1042 53.6914 14.0091 53.6914 15.3633C53.6914 16.6784 53.2812 17.5703 52.4609 18.0391C51.6536 18.4948 50.7031 18.7227 49.6094 18.7227C48.4896 18.7227 47.5326 18.4948 46.7383 18.0391C45.957 17.5703 45.5664 16.6784 45.5664 15.3633ZM69.5312 20.4805C72.3307 20.4805 74.5182 21.1771 76.0938 22.5703C77.6693 23.9505 78.457 25.9232 78.457 28.4883V43H73.1641L71.6992 40.0703H71.543C70.918 40.8516 70.2734 41.4896 69.6094 41.9844C68.9583 42.4661 68.2096 42.8177 67.3633 43.0391C66.5169 43.2734 65.4818 43.3906 64.2578 43.3906C62.9818 43.3906 61.8359 43.1302 60.8203 42.6094C59.8047 42.0885 59.0039 41.3008 58.418 40.2461C57.832 39.1914 57.5391 37.8568 57.5391 36.2422C57.5391 33.8724 58.3594 32.1146 60 30.9688C61.6406 29.8229 64.0169 29.1784 67.1289 29.0352L70.8203 28.918V28.6055C70.8203 27.6159 70.5729 26.9128 70.0781 26.4961C69.5964 26.0794 68.9453 25.8711 68.125 25.8711C67.2526 25.8711 66.276 26.0273 65.1953 26.3398C64.1276 26.6393 63.0534 27.0299 61.9727 27.5117L59.7656 22.4727C61.0417 21.8216 62.487 21.3268 64.1016 20.9883C65.7161 20.6497 67.526 20.4805 69.5312 20.4805ZM70.8594 33.1172L69.1016 33.1953C67.6953 33.2474 66.7057 33.4948 66.1328 33.9375C65.5729 34.3672 65.293 34.9857 65.293 35.793C65.293 36.5482 65.4948 37.1081 65.8984 37.4727C66.3021 37.8242 66.8359 38 67.5 38C68.4245 38 69.2122 37.707 69.8633 37.1211C70.5273 36.5352 70.8594 35.7734 70.8594 34.8359V33.1172ZM100.098 36.2031C100.098 37.6094 99.7852 38.8529 99.1602 39.9336C98.5352 41.0143 97.5326 41.8607 96.1523 42.4727C94.7852 43.0846 92.9818 43.3906 90.7422 43.3906C89.1667 43.3906 87.7539 43.306 86.5039 43.1367C85.2669 42.9674 84.0104 42.6419 82.7344 42.1602V36.0469C84.1276 36.6849 85.5469 37.1471 86.9922 37.4336C88.4375 37.707 89.5768 37.8438 90.4102 37.8438C91.2695 37.8438 91.8945 37.7526 92.2852 37.5703C92.6888 37.375 92.8906 37.0885 92.8906 36.7109C92.8906 36.3854 92.7539 36.112 92.4805 35.8906C92.2201 35.6562 91.7448 35.3893 91.0547 35.0898C90.3776 34.7904 89.4206 34.3867 88.1836 33.8789C86.9596 33.3711 85.9375 32.8177 85.1172 32.2188C84.3099 31.6198 83.7044 30.9036 83.3008 30.0703C82.8971 29.237 82.6953 28.2148 82.6953 27.0039C82.6953 24.8424 83.5286 23.2148 85.1953 22.1211C86.862 21.0273 89.069 20.4805 91.8164 20.4805C93.2747 20.4805 94.6484 20.6432 95.9375 20.9688C97.2266 21.2812 98.5612 21.7435 99.9414 22.3555L97.8516 27.2773C96.7578 26.7826 95.651 26.3854 94.5312 26.0859C93.4115 25.7865 92.5195 25.6367 91.8555 25.6367C91.2565 25.6367 90.7943 25.7148 90.4688 25.8711C90.1432 26.0273 89.9805 26.2552 89.9805 26.5547C89.9805 26.8281 90.0911 27.069 90.3125 27.2773C90.5469 27.4857 90.9831 27.7266 91.6211 28C92.2591 28.2734 93.1901 28.6576 94.4141 29.1523C95.7031 29.6732 96.7643 30.2331 97.5977 30.832C98.444 31.418 99.069 32.1341 99.4727 32.9805C99.8893 33.8268 100.098 34.901 100.098 36.2031ZM259.531 39.7578C259.531 38.3776 259.935 37.4076 260.742 36.8477C261.562 36.2878 262.546 36.0078 263.691 36.0078C264.772 36.0078 265.71 36.2878 266.504 36.8477C267.298 37.4076 267.695 38.3776 267.695 39.7578C267.695 41.0729 267.298 42.0234 266.504 42.6094C265.71 43.1953 264.772 43.4883 263.691 43.4883C262.546 43.4883 261.562 43.1953 260.742 42.6094C259.935 42.0234 259.531 41.0729 259.531 39.7578Z" fill="#1B1A1A"/>
<path d="M120.801 36.2031C120.801 37.6094 120.488 38.8529 119.863 39.9336C119.238 41.0143 118.236 41.8607 116.855 42.4727C115.488 43.0846 113.685 43.3906 111.445 43.3906C109.87 43.3906 108.457 43.306 107.207 43.1367C105.97 42.9674 104.714 42.6419 103.438 42.1602V36.0469C104.831 36.6849 106.25 37.1471 107.695 37.4336C109.141 37.707 110.28 37.8438 111.113 37.8438C111.973 37.8438 112.598 37.7526 112.988 37.5703C113.392 37.375 113.594 37.0885 113.594 36.7109C113.594 36.3854 113.457 36.112 113.184 35.8906C112.923 35.6562 112.448 35.3893 111.758 35.0898C111.081 34.7904 110.124 34.3867 108.887 33.8789C107.663 33.3711 106.641 32.8177 105.82 32.2188C105.013 31.6198 104.408 30.9036 104.004 30.0703C103.6 29.237 103.398 28.2148 103.398 27.0039C103.398 24.8424 104.232 23.2148 105.898 22.1211C107.565 21.0273 109.772 20.4805 112.52 20.4805C113.978 20.4805 115.352 20.6432 116.641 20.9688C117.93 21.2812 119.264 21.7435 120.645 22.3555L118.555 27.2773C117.461 26.7826 116.354 26.3854 115.234 26.0859C114.115 25.7865 113.223 25.6367 112.559 25.6367C111.96 25.6367 111.497 25.7148 111.172 25.8711C110.846 26.0273 110.684 26.2552 110.684 26.5547C110.684 26.8281 110.794 27.069 111.016 27.2773C111.25 27.4857 111.686 27.7266 112.324 28C112.962 28.2734 113.893 28.6576 115.117 29.1523C116.406 29.6732 117.467 30.2331 118.301 30.832C119.147 31.418 119.772 32.1341 120.176 32.9805C120.592 33.8268 120.801 34.901 120.801 36.2031ZM132.695 12.6094V16.9258C132.695 18.5664 132.656 19.9466 132.578 21.0664C132.513 22.1732 132.448 23.0195 132.383 23.6055H132.734C133.216 22.8372 133.763 22.2253 134.375 21.7695C134.987 21.3138 135.664 20.9883 136.406 20.793C137.148 20.5846 137.956 20.4805 138.828 20.4805C140.286 20.4805 141.602 20.7604 142.773 21.3203C143.958 21.8802 144.902 22.7591 145.605 23.957C146.309 25.1419 146.66 26.6914 146.66 28.6055V43H138.984V30.9297C138.984 29.4583 138.77 28.3516 138.34 27.6094C137.91 26.8542 137.246 26.4766 136.348 26.4766C135.423 26.4766 134.694 26.7435 134.16 27.2773C133.626 27.7982 133.249 28.5664 133.027 29.582C132.806 30.5846 132.695 31.8151 132.695 33.2734V43H125.059V12.6094H132.695ZM162.656 20.4805C165.456 20.4805 167.643 21.1771 169.219 22.5703C170.794 23.9505 171.582 25.9232 171.582 28.4883V43H166.289L164.824 40.0703H164.668C164.043 40.8516 163.398 41.4896 162.734 41.9844C162.083 42.4661 161.335 42.8177 160.488 43.0391C159.642 43.2734 158.607 43.3906 157.383 43.3906C156.107 43.3906 154.961 43.1302 153.945 42.6094C152.93 42.0885 152.129 41.3008 151.543 40.2461C150.957 39.1914 150.664 37.8568 150.664 36.2422C150.664 33.8724 151.484 32.1146 153.125 30.9688C154.766 29.8229 157.142 29.1784 160.254 29.0352L163.945 28.918V28.6055C163.945 27.6159 163.698 26.9128 163.203 26.4961C162.721 26.0794 162.07 25.8711 161.25 25.8711C160.378 25.8711 159.401 26.0273 158.32 26.3398C157.253 26.6393 156.178 27.0299 155.098 27.5117L152.891 22.4727C154.167 21.8216 155.612 21.3268 157.227 20.9883C158.841 20.6497 160.651 20.4805 162.656 20.4805ZM163.984 33.1172L162.227 33.1953C160.82 33.2474 159.831 33.4948 159.258 33.9375C158.698 34.3672 158.418 34.9857 158.418 35.793C158.418 36.5482 158.62 37.1081 159.023 37.4727C159.427 37.8242 159.961 38 160.625 38C161.549 38 162.337 37.707 162.988 37.1211C163.652 36.5352 163.984 35.7734 163.984 34.8359V33.1172ZM190.137 20.4805C190.553 20.4805 190.99 20.513 191.445 20.5781C191.901 20.6302 192.24 20.6758 192.461 20.7148L191.777 27.9219C191.53 27.8568 191.211 27.8047 190.82 27.7656C190.43 27.7135 189.883 27.6875 189.18 27.6875C188.698 27.6875 188.184 27.7331 187.637 27.8242C187.09 27.9154 186.569 28.1107 186.074 28.4102C185.592 28.6966 185.195 29.1393 184.883 29.7383C184.57 30.3242 184.414 31.1185 184.414 32.1211V43H176.777V20.8711H182.461L183.652 24.4062H184.023C184.427 23.6771 184.941 23.0195 185.566 22.4336C186.204 21.8346 186.914 21.3594 187.695 21.0078C188.49 20.6562 189.303 20.4805 190.137 20.4805ZM222.578 20.4805C225.104 20.4805 227.031 21.125 228.359 22.4141C229.701 23.7031 230.371 25.7669 230.371 28.6055V43H222.734V30.9688C222.734 29.2891 222.507 28.1237 222.051 27.4727C221.608 26.8086 220.944 26.4766 220.059 26.4766C218.822 26.4766 217.962 27.0169 217.48 28.0977C217.012 29.1784 216.777 30.7083 216.777 32.6875V43H209.121V30.9688C209.121 29.901 209.023 29.0417 208.828 28.3906C208.646 27.7266 208.366 27.2448 207.988 26.9453C207.611 26.6328 207.135 26.4766 206.562 26.4766C205.69 26.4766 205.007 26.7435 204.512 27.2773C204.03 27.7982 203.691 28.5664 203.496 29.582C203.301 30.5977 203.203 31.8411 203.203 33.3125V43H195.566V20.8711H201.328L202.441 23.6055H202.656C203.047 23.0065 203.548 22.4727 204.16 22.0039C204.785 21.5352 205.521 21.1641 206.367 20.8906C207.227 20.6172 208.203 20.4805 209.297 20.4805C210.924 20.4805 212.266 20.7539 213.32 21.3008C214.375 21.8477 215.234 22.6029 215.898 23.5664H216.133C216.836 22.5768 217.741 21.8151 218.848 21.2812C219.954 20.7474 221.198 20.4805 222.578 20.4805ZM246.367 20.4805C249.167 20.4805 251.354 21.1771 252.93 22.5703C254.505 23.9505 255.293 25.9232 255.293 28.4883V43H250L248.535 40.0703H248.379C247.754 40.8516 247.109 41.4896 246.445 41.9844C245.794 42.4661 245.046 42.8177 244.199 43.0391C243.353 43.2734 242.318 43.3906 241.094 43.3906C239.818 43.3906 238.672 43.1302 237.656 42.6094C236.641 42.0885 235.84 41.3008 235.254 40.2461C234.668 39.1914 234.375 37.8568 234.375 36.2422C234.375 33.8724 235.195 32.1146 236.836 30.9688C238.477 29.8229 240.853 29.1784 243.965 29.0352L247.656 28.918V28.6055C247.656 27.6159 247.409 26.9128 246.914 26.4961C246.432 26.0794 245.781 25.8711 244.961 25.8711C244.089 25.8711 243.112 26.0273 242.031 26.3398C240.964 26.6393 239.889 27.0299 238.809 27.5117L236.602 22.4727C237.878 21.8216 239.323 21.3268 240.938 20.9883C242.552 20.6497 244.362 20.4805 246.367 20.4805ZM247.695 33.1172L245.938 33.1953C244.531 33.2474 243.542 33.4948 242.969 33.9375C242.409 34.3672 242.129 34.9857 242.129 35.793C242.129 36.5482 242.331 37.1081 242.734 37.4727C243.138 37.8242 243.672 38 244.336 38C245.26 38 246.048 37.707 246.699 37.1211C247.363 36.5352 247.695 35.7734 247.695 34.8359V33.1172Z" fill="#6B6666"/>
</svg>
